<svg xmlns="http://www.w3.org/2000/svg" width="478" height="128"><g fill="none" fill-rule="evenodd"><path fill="#FFF" d="M53.2.2h.4l1.3.4L61 2.9a10 10 0 0 1 6.4 10.6l4.3 1.6A11 11 0 0 1 77.5 31L65.9 50.8l-.5.7-19.2 53c-1.5 4.4-6 6.8-13 8l-1.6 4.3a6.6 6.6 0 0 1-3 3.5l-1.5 4c-.8 2.2-3 3.7-5.4 3.7L7 127.8a5.7 5.7 0 0 1-5.3-7.7l3-8.3a6.6 6.6 0 0 1-.1-4.8l1.6-4.4c-4.6-5.3-6.3-10-4.8-14.4l19-52.6a5.7 5.7 0 0 1 .1-1.3l3.8-22.8A10.9 10.9 0 0 1 39 3l4.3 1.6c2-3.3 6-5.2 10-4.4Z"/><path fill="#000" d="m52.5 4 1 .4 6.3 2.3a6 6 0 0 1 3 8.5l-.4.7 8 3a7 7 0 0 1 3.6 10L62.4 48.8c0 .2-.3.4-.4.5l-19.5 53.9c-1 3-5.2 4.8-12.3 5.6l-2.3 6.6a2.6 2.6 0 0 1-2.4 1.7l-2.1 5.8c-.3.7-1 1.1-1.7 1.1l-14.5-.2a1.7 1.7 0 0 1-1.6-2.3l3.7-10.2a2.6 2.6 0 0 1-.8-3l2.4-6.6c-5-5.2-6.7-9.2-5.6-12.2L24.7 36a1.7 1.7 0 0 1-.1-1L28.4 12a6.9 6.9 0 0 1 9.1-5.3l8 3 .2-1a5.9 5.9 0 0 1 6.8-4.7ZM28.8 37.3 9.3 91c0 .3 0 1 .5 2 .6 1.6 2 3.5 4.2 5.8l1.8 1.9-1.9 5.2 11.3 4.2 1.9-5.3 2.6-.3c3.2-.3 5.5-1 7.1-1.6l1.4-.9.2-.3L58 47.8a67.9 67.9 0 0 0-13.7-6.4c-6-2.2-11-3.6-15.4-4.2ZM41 51l6.5 7.8c.4.4.5 1.1.3 1.7L37.7 88.7c-.3.6-.8 1-1.4 1.1l-9.9 1.8c-.6 0-1.2-.1-1.6-.6l-6.4-7.8c-.4-.4-.6-1.1-.3-1.7l10.2-28.2c.2-.6.7-1 1.3-1.1l9.9-1.8c.6 0 1.2.1 1.6.6Z"/><path fill="#FFF" fill-rule="nonzero" d="M169.4 122V71.7h-32V122h-18.1V6.2h18.2v49.4h31.9V6.2h18.3V122zM269 122h-18.3V57.2L222 6.2h20.4l18 33.4h.2l17.3-33.4h19.8L269 57.1zM382.2 122H332V6.2h18.3v99.6h31.9zM477.6 122h-57V6.2h57v16.2h-38.7v33.2H472v16.1h-33.2v34.1h38.7z"/></g></svg>
