<svg xmlns="http://www.w3.org/2000/svg" width="79" height="128"><g fill="none" fill-rule="evenodd"><path fill="#FFF" d="M52.2.2h.5l1.2.4 6.3 2.3a10 10 0 0 1 6.4 10.6l4.3 1.6A11 11 0 0 1 76.5 31L65 50.8l-.5.7-19.1 53c-1.6 4.4-6 6.8-13.1 8l-1.6 4.3a6.6 6.6 0 0 1-3 3.5l-1.4 4c-.9 2.2-3 3.7-5.5 3.7l-14.6-.2a5.7 5.7 0 0 1-5.3-7.7l3-8.3a6.6 6.6 0 0 1 0-4.8l1.5-4.4C.8 97.3-1 92.6.6 88.2l19-52.6a5.7 5.7 0 0 1 0-1.3l3.8-22.8A10.9 10.9 0 0 1 38 3l4.3 1.6c2-3.3 6-5.2 10-4.4Z"/><path fill="#000" d="m51.5 4 1 .4 6.3 2.3a6 6 0 0 1 3 8.5l-.4.7 8 3a7 7 0 0 1 3.7 10L61.5 48.8l-.5.5-19.5 53.9c-1 3-5.2 4.8-12.3 5.6l-2.3 6.6a2.6 2.6 0 0 1-2.4 1.7l-2.1 5.8c-.3.7-1 1.1-1.6 1.1l-14.6-.2a1.7 1.7 0 0 1-1.6-2.3l3.7-10.2a2.6 2.6 0 0 1-.8-3l2.4-6.6c-5-5.2-6.6-9.2-5.6-12.2L23.7 36a1.7 1.7 0 0 1-.1-1L27.4 12a6.9 6.9 0 0 1 9.1-5.3l8 3 .2-1a5.9 5.9 0 0 1 6.8-4.7ZM27.8 37.3 8.4 91c-.2.3-.1 1 .4 2 .7 1.6 2 3.5 4.2 5.8l1.8 1.9-1.9 5.2 11.3 4.2 2-5.3 2.6-.3c3-.3 5.5-1 7-1.6.7-.3 1.1-.6 1.4-.9l.3-.3 19.4-53.9a67.9 67.9 0 0 0-13.7-6.4c-6-2.2-11-3.6-15.4-4.2ZM40.1 51l6.5 7.8c.4.4.5 1.1.3 1.7L36.7 88.7c-.2.6-.7 1-1.3 1.1l-10 1.8c-.6 0-1.2-.1-1.6-.6l-6.4-7.8c-.4-.4-.5-1.1-.3-1.7l10.2-28.2c.2-.6.7-1 1.3-1.1l9.9-1.8c.6 0 1.2.1 1.6.6Z"/></g></svg>
