<svg xmlns="http://www.w3.org/2000/svg" width="473" height="120"><g fill="#000" fill-rule="evenodd"><path d="m47.5 0 1 .4 6.3 2.3a6 6 0 0 1 3 8.5l-.4.7 8 3a7 7 0 0 1 3.6 10L57.4 44.8c0 .2-.3.4-.4.5L37.5 99.2c-1 3-5.2 4.8-12.3 5.6l-2.3 6.6a2.6 2.6 0 0 1-2.4 1.7l-2.1 5.8c-.3.7-1 1.1-1.7 1.1l-14.5-.2a1.7 1.7 0 0 1-1.6-2.3l3.7-10.2a2.6 2.6 0 0 1-.8-3l2.4-6.6C.9 92.5-.8 88.5.3 85.5L19.7 32a1.7 1.7 0 0 1-.1-1L23.4 8a6.9 6.9 0 0 1 9.1-5.3l8 3 .2-1A5.9 5.9 0 0 1 47.5.2ZM23.8 33.3 4.3 87c0 .3 0 1 .5 2 .6 1.6 2 3.5 4.2 5.8l1.8 1.9-1.9 5.2 11.3 4.2 1.9-5.3 2.6-.3c3.2-.3 5.5-1 7.1-1.6l1.4-.9.2-.3L53 43.8a67.9 67.9 0 0 0-13.7-6.4c-6-2.2-11-3.6-15.4-4.2ZM36 47l6.5 7.8c.4.4.5 1.1.3 1.7L32.7 84.7c-.3.6-.8 1-1.4 1.1l-9.9 1.8c-.6 0-1.2-.1-1.6-.6l-6.4-7.8c-.4-.4-.6-1.1-.3-1.7l10.2-28.2c.2-.6.7-1 1.3-1.1l9.9-1.8c.6 0 1.2.1 1.6.6Z"/><path fill-rule="nonzero" d="M164.4 118V67.7h-32V118h-18.1V2.2h18.2v49.4h31.9V2.2h18.3V118zM264 118h-18.3V53.2L217 2.2h20.4l18 33.4h.2l17.3-33.4h19.8L264 53.1zM377.2 118H327V2.2h18.3v99.6h31.9zM472.6 118h-57V2.2h57v16.2h-38.7v33.2H467v16.1h-33.2v34.1h38.7z"/></g></svg>
